<svg version="1.2" baseProfile="tiny" viewBox="0 0 14.0 11.892" xmlns:xlink="http://www.w3.org/1999/xlink" xmlns="http://www.w3.org/2000/svg">
<path style="fill:#ffffff;" d="M8.993,11.836c-0.061,0.038-0.129,0.056-0.196,0.056c-0.125,0-0.246-0.063-0.317-0.176
		L4.886,5.907c0,0,0-0.001-0.001-0.001L4.881,5.899c-0.009-0.014-0.01-0.03-0.017-0.045C4.851,5.826,4.837,5.798,4.832,5.767
		c-0.004-0.024,0-0.047,0-0.071c0-0.024-0.002-0.048,0.003-0.072C4.841,5.596,4.856,5.57,4.869,5.543
		c0.008-0.016,0.01-0.033,0.02-0.048l3.6-5.331c0.115-0.17,0.347-0.215,0.517-0.1c0.17,0.115,0.215,0.347,0.1,0.517L5.641,5.713
		l3.473,5.611C9.222,11.498,9.168,11.728,8.993,11.836z"/>
</svg>