<svg version="1.2" baseProfile="tiny" viewBox="0 0 17.759 17.500" xmlns:xlink="http://www.w3.org/1999/xlink" xmlns="http://www.w3.org/2000/svg">
<path style="fill:#ffffff;" d="M17.446,7.903L9.668,0.306C9.459,0.102,9.169,0,8.879,0s-0.58,0.102-0.789,0.306L0.313,7.903   C0,8.208-0.085,8.64,0.089,9.031c0.175,0.391,0.563,0.634,1.012,0.634l1.068-0.003v6.589c0,0.688,0.59,1.246,1.315,1.246L7.523,17.5   h0.083v-6.244c0-0.213,0.182-0.385,0.406-0.385H9.52h0.227c0.225,0,0.406,0.172,0.406,0.385V17.5h0.083l4.039-0.003   c0.725,0,1.315-0.559,1.315-1.246V9.662l1.067,0.003c0.449,0,0.837-0.243,1.012-0.634S17.759,8.208,17.446,7.903z M16.786,8.677   c-0.017,0.037-0.053,0.08-0.128,0.08l-1.082-0.003h-0.09h-0.161c0,0-0.695-0.162-0.695,0.668v0.241v6.589   c0,0.186-0.159,0.337-0.354,0.337l-3.095,0.003l-0.012,0.001c0.005-0.04,0.012-0.08,0.012-0.121v-0.018v-5.462   c0-0.567-0.424-1.029-0.944-1.029H9.52H7.523c-0.521,0-0.944,0.462-0.944,1.029v5.462v0.018c0,0.041,0.007,0.081,0.011,0.121   l-0.011-0.001l-3.094-0.003c-0.196,0-0.355-0.151-0.355-0.337V9.662V9.421c0-0.831-0.695-0.668-0.695-0.668H2.273h-0.09L1.101,8.756   c-0.076,0-0.111-0.043-0.127-0.08c-0.016-0.036-0.024-0.09,0.029-0.142l7.778-7.597c0.033-0.033,0.065-0.049,0.099-0.049   s0.065,0.016,0.099,0.049l7.778,7.597C16.81,8.587,16.801,8.641,16.786,8.677z"/>
</svg>