<svg version="1.2" baseProfile="tiny" viewBox="0 0 18 18" xmlns:xlink="http://www.w3.org/1999/xlink" xmlns="http://www.w3.org/2000/svg">
<path style="fill:#ffffff;" d="M 8.625 0.0078125 A 9 9 0 0 0 9 18 A 9.01035 9.01035 0 0 0 18 9 A 9 9 0 0 0 8.625 0.0078125 z M 9 0.98242188 A 8.02716 8.02716 0 0 1 15.316406 4.0820312 L 2.671875 4.0820312 A 8.01817 8.01817 0 0 1 9 0.98242188 z M 2.6503906 5.0644531 L 15.349609 5.0644531 L 9 16.0625 L 2.6503906 5.0644531 z M 1.78125 5.5234375 L 8.4003906 16.986328 A 8.01817 8.01817 0 0 1 1.78125 5.5234375 z M 16.214844 5.5292969 A 8.02716 8.02716 0 0 1 17.017578 9 A 8.01817 8.01817 0 0 1 9.5976562 16.990234 L 16.214844 5.5292969 z"/>
</svg>